<svg xmlns="http://www.w3.org/2000/svg" width="15.03" height="11.03" viewBox="0 0 15.03 11.03">
  <defs>
    <style>
      .cls-1 {
        fill: #0f7bff;
        fill-rule: evenodd;
      }
    </style>
  </defs>
  <path id="icon" class="cls-1" d="M1074.1,2100.15a0.52,0.52,0,0,0-.76,0,0.582,0.582,0,0,0,0,.78l3.84,4h-12.65a0.541,0.541,0,0,0-.53.56,0.547,0.547,0,0,0,.53.56h12.65l-3.84,3.99a0.6,0.6,0,0,0,0,.79,0.52,0.52,0,0,0,.76,0l4.74-4.95a0.562,0.562,0,0,0,0-.78Z" transform="translate(-1064 -2100)"/>
</svg>
