<svg xmlns="http://www.w3.org/2000/svg" width="17.03" height="24" viewBox="0 0 17.03 24">
  <defs>
    <style>
      .cls-1 {
        fill: #0f7bff;
        fill-rule: evenodd;
      }
    </style>
  </defs>
  <path id="Icon" class="cls-1" d="M1739.26,6686.84a0.828,0.828,0,0,0,0,1.21,0.851,0.851,0,0,0,1.2,0l6.18-6.13v20.23a0.849,0.849,0,0,0,.85.85,0.86,0.86,0,0,0,.87-0.85v-20.23l6.17,6.13a0.863,0.863,0,0,0,1.21,0,0.828,0.828,0,0,0,0-1.21l-7.64-7.59a0.851,0.851,0,0,0-1.2,0Z" transform="translate(-1739 -6679)"/>
</svg>
